<svg id="Capa_1" data-name="Capa 1" xmlns="http://www.w3.org/2000/svg" viewBox="0 0 500 500"><defs><style>.cls-1{fill:#104738;}.cls-2{fill:#3adf94;}.cls-3{fill:#5acb9f;}</style></defs><path class="cls-1" d="M278.75,262c-12.11,13.47-13.41,29.85-11.57,47.31-8.28-1.54-15.42-3-22.76-3.26-5.1-.18-7.53.74-8.16,6.75-2.39,22.84-12.64,42.44-26.06,60.75-10.77,14.71-25.65,18-42.41,16.9-5.77-.39-7.31-4.23-4-9a14.43,14.43,0,0,1,10.81-6.53c6.67-.47,9.18-4.42,10.32-10.15,3.42-17.28,2.41-33.67-9-48.25-2.2-2.81-3.13-6.6-5.32-9.42-6.38-8.2-14.85-12.93-25.65-14.44,3.5,5.77,8.93,8.24,13.68,11.47,6.7,4.55,10.69,11,13.73,18.22,1.23,2.91.74,6-.4,8.79-2.95,7.3-5.54,14.61-10.38,21.22-3.57,4.86-5.16,11.26-9.55,15.92-10,10.67-23.08,10.92-36.16,10-4.75-.32-5.86-5.1-2.67-9.1,3-3.8,7.34-5.67,11.85-7.05,5-1.54,7.38-4.73,8.14-10.05,2.61-18.14,1-35.74-5.49-52.91-1.33-3.52-3.11-5.33-7.18-5.38a30.24,30.24,0,0,1-22.31-9.62c-3.32-3.46-8.15-4.38-12.53-5.93-15.16-5.34-27.9-14.05-37.61-27-4.56-6.08-4.57-6.11,0-11.71,6.75-8.34,11.25-18.09,17.06-27,2.44-3.74,1-7.08-.52-10.38a51,51,0,0,1-5.2-20.18c-.49-13.28,7.18-18.26,19.3-12.63a8.59,8.59,0,0,1,2.62,1.43c8,8.28,16.9,9,27.87,6,10.59-2.95,21.89-1.93,32.58,1.47,4.71,1.5,8.2.61,11.53-3.08A27,27,0,0,1,165,167.75c8.78-2.91,15.19,1.31,15.88,10.54.5,6.69.55,13.52-3,19.45-3.69,6.12-2.35,11.22,1.47,16.58a132.14,132.14,0,0,1,8.93,14.43c1.64,3.05,3.65,6.28,2.56,11-6.51-4.52-12.62-8.44-18.38-12.83-11.75-9-26.18-10.79-39.59-15.33-3.15-1.06-5.85.72-5.58,3.72.52,5.78-1.89,11.12-1.81,16.59,1,1.25,1.88.73,2.6.2,10.73-8,21.34-8,31.59.89,6.68,5.8,13.09,11.85,20.49,16.81,4.35,2.91,4.05,4.66-.26,8.48-3.82,3.37-9.35,4.29-12.52,8.75,1.38,2.85,3.28,1,4.91.43,11.52-4,19.58-12.25,26.86-21.59,2.46-3.16,2.22-6,.75-9.26a161.13,161.13,0,0,0-12.89-23.66c-2.89-4.27-3.23-8.12-1.35-13,4-10.5,5.29-21.38.66-32.11-1.84-4.25,1.31-5.38,3.68-6.81,14.94-9,30.86-15.86,47.93-19.44,32.55-6.82,63.68-3.42,92.17,15,14.27,9.21,25.8,21,32.69,36.86,2.83,6.51,7,11.9,11.83,17.11C383.36,220,390.59,230.59,395,243a288.24,288.24,0,0,0,13.7,33.22c8.44,16.93,20.51,30.21,37.4,39a80.3,80.3,0,0,1,16.59,11.08c7.36,6.56,12.57,14.44,9.86,24.6s-10,16.43-20.09,19a63.22,63.22,0,0,1-42.06-3.39c-19-8.41-33.08-22.21-42.27-40.8-4.51-9.13-8.33-18.61-13-29.17-5.55,8.54-9.19,16.28-10.13,25.48a126.84,126.84,0,0,0,.84,31.87c1.29,8.62-1.29,15.92-9.2,20.49-13.47,7.79-27.88,12.6-43.59,12.79a19.65,19.65,0,0,1-6.89-.88c-5-1.82-5.88-6.34-2-10.17s9.12-5.42,14.21-7c13.94-4.23,14.68-6.59,4.22-17.11a102.36,102.36,0,0,1-17.06-22c-11.91-21.2-13.31-42.87-3.57-65.19a12.93,12.93,0,0,0,3.52-7.32c.81-.68,1.55-1.42.29-2.27-.15-.09-.92.75-1.41,1.15A11.59,11.59,0,0,0,278.75,262ZM112,250.16c-8.28,1.08-11,7.25-14.93,11.83-5.77,6.78-5.58,6.93,1.29,12.08a88.13,88.13,0,0,1,7.06,5.53c5.07,4.66,11,5.33,17.62,5.15,10.55-.3,16.18-7.9,22.67-14.31a3.29,3.29,0,0,0,.1-4.57c-5.21-6.16-9.15-13.9-18.54-15.57-1.56,6.17-5.5,11.82,1,17.57,2.81,2.47,1.61,6.19-1.12,8.83-3.94,3.78-11.4,3.95-15.62.41-3.76-3.17-4.7-7-.93-10.11,4-3.35,3.5-6.61,2.53-10.58C112.64,254.52,112.39,252.57,112,250.16ZM431.42,317.7c-3.7,15-12.8,26.46-24.95,36.27,5.35,4.46,10.86,5.77,16.07,7.76,3.63,1.38,6.32.4,8.91-2.3a60.24,60.24,0,0,0,11-16.5C450,326.75,449.07,324.61,431.42,317.7Zm-25.21-26.91c-7.42,10.13-15.51,18.24-26.74,22.84-6.31,2.58-6.24,3.22-3.36,9.7a50.4,50.4,0,0,0,2.72,5.33c3.55,5.91,4.88,6.47,11.33,4.18,8.59-3,14.11-9.69,19.12-16.84C418.12,303.39,418.11,303.38,406.21,290.79ZM112.35,232.88a36.81,36.81,0,0,0-1.22-14.78c-1.65-6.28-1.87-6.44-8.11-5.24-17.59,3.36-32.47,11.21-43.57,25.71-4.27,5.57-4.6,5.32,1.79,12,4.84-5.4,9.58-10.93,15.29-15.41C89.85,224.75,98.85,224.15,112.35,232.88Zm277,21C374.85,258.44,369.22,270,365,282.62c-1.58,4.8.57,7.09,5.55,5.83,8.53-2.16,16-6.27,21.61-13.25,2.2-2.73,3.48-5.69,2-9.16C392.42,261.88,391.73,257.24,389.31,253.85ZM147.12,240.74c.24-3.38-1.89-6-5.12-6-3.05,0-5.05,1.39-5.5,4.53-.49,3.37,2.41,6.9,5.69,6.67C145.26,245.74,146.83,243.76,147.12,240.74Zm-49.38-6.23c-3.08.11-5.2,1.39-5.16,4.64,0,3.44,2,5.49,5.48,5.53a4.21,4.21,0,0,0,4.54-4.17C102.92,237,101.14,235,97.74,234.51Zm42.82,58,1.62-.7c-.52-.25-1-.71-1.57-.72s-1.73-.34-1.64.89C139,292.23,140,292.37,140.56,292.55Z"/><path class="cls-1" d="M242.62,314.61c8.26-1.15,16.58-.49,23.2,3.76,11,7,17.71,18.49,24.56,29.22,3.35,5.25-.17,12.93-6.08,16.31-13.69,7.85-28.73,9.79-44.26,8.65-2.35-.17-4.58-1.22-5.43-3.71-1-3,.66-5.09,2.85-6.82,4.28-3.36,9.35-4.84,14.52-6.23,7.89-2.12,9-5.08,4.61-12-3.4-5.29-7.71-10-10.32-15.81C244.41,323.86,241.78,319.9,242.62,314.61Z"/><path class="cls-2" d="M431.42,317.7c17.65,6.91,18.59,9.05,11,25.23a60.24,60.24,0,0,1-11,16.5c-2.59,2.7-5.28,3.68-8.91,2.3-5.21-2-10.72-3.3-16.07-7.76C418.62,344.16,427.72,332.66,431.42,317.7Z"/><path class="cls-2" d="M406.21,290.79c11.9,12.59,11.91,12.6,3.07,25.21-5,7.15-10.53,13.8-19.12,16.84-6.45,2.29-7.78,1.73-11.33-4.18a50.4,50.4,0,0,1-2.72-5.33c-2.88-6.48-2.95-7.12,3.36-9.7C390.7,309,398.79,300.92,406.21,290.79Z"/><path class="cls-2" d="M389.31,253.85c2.42,3.39,3.11,8,4.89,12.19,1.48,3.47.2,6.43-2,9.16-5.64,7-13.08,11.09-21.61,13.25-5,1.26-7.13-1-5.55-5.83C369.22,270,374.85,258.44,389.31,253.85Z"/><path class="cls-3" d="M147.13,240.75c-.3,3-1.87,5-4.94,5.21-3.28.23-6.18-3.3-5.69-6.67.45-3.14,2.45-4.57,5.5-4.53C145.23,234.79,147.36,237.36,147.13,240.75Z"/><path class="cls-3" d="M97.74,234.51c3.4.5,5.18,2.5,4.86,6a4.21,4.21,0,0,1-4.54,4.17c-3.5,0-5.44-2.09-5.48-5.53C92.54,235.9,94.66,234.62,97.74,234.51Z"/><rect class="cls-1" x="138.32" y="289.05" width="5.43" height="5.43" rx="2.71"/></svg>