<svg id="Capa_1" data-name="Capa 1" xmlns="http://www.w3.org/2000/svg" viewBox="0 0 500 500"><defs><style>.cls-1{fill:#085543;}.cls-2{fill:#60d5a3;}</style></defs><path class="cls-1" d="M140.37,394.92c2-6.75,4.11-13.49,6-20.29.56-2.1,1.46-4.27,1-7.33-3.2,6.34-5.11,12.37-7.22,18.32-1.27,3.55-2.28,5.27-3.72,10.68-4.08,9.9-7.71,20-12.35,29.65-2.13,4.41-2.83,4.64-6.93,2.14-5.36-3.26-7.26-8.37-7-14.38a30.36,30.36,0,0,1,2.48-10c7.42-18.93,16-37.36,23.86-56.12,2-4.82,4.68-9.37,6.1-14.44h-.15c1,.15,1.12-.59,1.39-1.21l8-4.63a209.1,209.1,0,0,0,63-55.37c11.92-15.76,19.17-33.34,17-53.71-.11-1.11.38-2.56-1.22-3.28a3.13,3.13,0,0,0-.8,2.48,63.75,63.75,0,0,1-3.9,17.48c-5.63,15.64-15.32,28.79-26.07,41.17-17,19.59-36.75,36.08-57.92,51-3.84,2.69-8,4.92-11.35,8.33-1.84.81-2.21-.22-2.24-1.76a127.55,127.55,0,0,1,1-17.37c2.52-21.68,6.51-43.05,14.63-63.43,7.5-18.83,17-36.48,31.68-50.89,5.46-5.36,11.71-9.72,18.05-14a67.18,67.18,0,0,0,7-5.15A23.91,23.91,0,0,0,209.21,167c1-9,1.73-18.05,4-26.87,3.32-12.69,8.8-24.17,18.38-33.38a50.52,50.52,0,0,1,32.76-14.17c7.1-.45,13.57,1.88,19.73,5.2,2.28,6.5,4.28,13,4.66,20a67.76,67.76,0,0,1-1,15.13c-.62,3.7-.3,4.07,3.57,3.82,2-.13,4-.6,5.94-.66,18.15-.49,36.29-1.3,54.33,1.82,17.07,2.95,33.68,7.26,49.05,15.56.92.49,1.79,1.33,3,.57.17-1.64-1.29-2-2.22-2.64-3.89-2.67-7.91-5.15-11.76-7.87-5.32-3.75-7.23-7.91-5.92-12.33,1.39-4.66,6.42-8,12.4-8.06a30,30,0,0,1,5.89,1c1.4.29,2.69,1.14,4.21.81,17.66,10.69,25.36,32.24,21.46,50.73A78.56,78.56,0,0,0,413,167.46c-14.32-5.86-29.36-8.08-44.66-8.74-16.72-.73-33.41.14-50.07,1.54-5.81.49-11.61.73-17.37-.44a42.37,42.37,0,0,1-6.31-1.64c-10.85-4-15.2-10.38-14.92-21.91.07-2.89.46-5.78.76-8.67a50,50,0,0,0-1.86-21c-.79-2.41-1.84-3.4-4.7-3-13.82,2-24.23,8.28-29.31,21.87a31.43,31.43,0,0,1-2.74,5.91c-6,9.45-8,19.89-6.93,30.78,1.9,19.51,9.63,36.35,24.49,49.51A35.46,35.46,0,0,0,277.43,220c10.09,1.69,18.39-3.12,21.89-12.73.47-1.31.45-2.89,2-3.93,2.12,10.51,1,20.72-1.47,30.83-5.18,21.33-16.63,38.88-32.72,53.54-4.55,4.14-9.36,8-14,12.05a16.06,16.06,0,0,0-5.83,13.78,2.07,2.07,0,0,0,1.84.82l20.3.92,1.08.27c.24.64.63.85,1.24.43,4.14,4.76,8.75,3.16,13.69,1.4,13.17-4.69,26.44-9.1,39.69-13.55,1.5-.5,3-1.45,4.7-1.13,1.13,1.23.11,2.41-.15,3.54-1,4.42-2.37,8.78-3.17,13.23-.6,3.32-2.36,4.85-5.44,5.83-11.42,3.62-22.75,7.51-34.15,11.2a9.19,9.19,0,0,0-5.78,4.41c-3.48,6.11-7.16,7-13.4,3.69a4.83,4.83,0,0,0-4.13-.3c-6.38,2.09-12.76,4.19-19.16,6.23a5.5,5.5,0,0,0-3.56,3c-1.31,2.72-3.75,4.37-6.35,5.76-2.43,1.31-4.88,1.6-7.09-.38-1.85-1.67-3.68-1.67-6-.89-11.84,4.05-23.69,8.05-35.62,11.82-2.95.93-4,2.51-4.26,5.4q-1.57,16.26-3.46,32.5c-.9,7.86-3.5,14.85-10.7,19.25a1,1,0,0,0-1.26.7l-.13.05a.77.77,0,0,0-1.11.46l-1.13.57a3.21,3.21,0,0,0-3.13,1l-.16,0c-1.36-.28-3.29.43-3.45-2,.55-3,1.1-5.95,1.65-8.91a1.93,1.93,0,0,0,.34-.14,5.25,5.25,0,0,0-.22-.63L163,391.71c.11-.06.34-.15.33-.18a5,5,0,0,0-.25-.64c.21-1.09.41-2.18.61-3.27a23.9,23.9,0,0,0,1.08-11.87c-1.46,4.33-2.74,7.42-2.59,10.87Q159,399,155.81,411.41a.71.71,0,0,0-.29,1.13q-.74,2.77-1.46,5.55c-.62.23-.77.63-.43,1.2a62.28,62.28,0,0,1-4.89,15,14.11,14.11,0,0,1-14.72,8c-5.35-.82-7.75-4.55-6.1-9.73,2.64-8.3,5.27-16.6,8.15-24.81m49-58.48c2,.73,3.7-.23,5.38-.76,5.36-1.69,10.62-3.86,16.09-5,5.2-1.11,7.59-4.22,9-9.15-4.48-1.23-9.16-1.77-13.07-3.79-5.45-2.83-9.72-.64-14.31,1.51a4.68,4.68,0,0,0-2.83,4.28C185,340.65,184.57,345,185.08,349.27Zm27.86-25.84c4.72,2.09,9.13,3,13.47,4.07,2.13.52,4.47.82,6,2.35,3.7,3.67,7.52,3.32,11.71,1.12a17.44,17.44,0,0,1,4.14-1.26c3.47-.8,5.54-2.84,6.28-7-3.35,0-6.39,0-9.44,0-6.59-.1-13.15-.26-17.86-6.05a2.83,2.83,0,0,0-3.94-.56C220.21,318.59,216.06,319.48,212.94,323.43Z"/><path class="cls-2" d="M406.24,124.87c-1.52.33-2.81-.52-4.21-.81a30,30,0,0,0-5.89-1c-6,0-11,3.4-12.4,8.06-1.31,4.42.6,8.58,5.92,12.33,3.85,2.72,7.87,5.2,11.76,7.87.93.64,2.39,1,2.22,2.64-1.21.76-2.08-.08-3-.57-15.37-8.3-32-12.61-49.05-15.56-18-3.12-36.18-2.31-54.33-1.82-2,.06-3.95.53-5.94.66-3.87.25-4.19-.12-3.57-3.82a67.76,67.76,0,0,0,1-15.13c-.38-7-2.38-13.52-4.66-20,3.53-1.71,7.45-1.51,11.17-2,32.25-4,63.07,1.2,92.48,14.92,6.29,2.94,11.78,7.08,17.1,11.45C405.7,122.83,406.5,123.6,406.24,124.87Z"/><path class="cls-2" d="M130.46,335.38c3.32-3.41,7.51-5.64,11.35-8.33,21.17-14.88,40.93-31.37,57.92-51,10.75-12.38,20.44-25.53,26.07-41.17a63.75,63.75,0,0,0,3.9-17.48,3.13,3.13,0,0,1,.8-2.48c1.6.72,1.11,2.17,1.22,3.28,2.14,20.37-5.11,37.95-17,53.71a209.1,209.1,0,0,1-63,55.37l-8,4.63c-.62.22-1.35.33-1.39,1.21h.15c-1.85-.89-3.49,0-5.21.55C135,334.36,132.91,335.55,130.46,335.38Z"/><path class="cls-1" d="M265.36,116.52a6.89,6.89,0,0,1,7,6.75,6.51,6.51,0,0,1-6.45,7.13,6.6,6.6,0,0,1-7.25-6.9A6.78,6.78,0,0,1,265.36,116.52Z"/><path class="cls-1" d="M142.32,333.16c0-.88.77-1,1.39-1.21C143.44,332.57,143.27,333.31,142.32,333.16Z"/></svg>