<svg xmlns="http://www.w3.org/2000/svg" viewBox="0 0 64 64" fill="none">
  <!-- Cuerpo de la rana -->
  <ellipse cx="32" cy="38" rx="16" ry="12" fill="#2E7D32"/>
  <!-- Cabeza -->
  <ellipse cx="32" cy="24" rx="14" ry="10" fill="#388E3C"/>
  <!-- Ojos saltones -->
  <circle cx="20" cy="18" r="6" fill="#1B5E20"/>
  <circle cx="44" cy="18" r="6" fill="#1B5E20"/>
  <circle cx="19" cy="17" r="3" fill="white"/>
  <circle cx="43" cy="17" r="3" fill="white"/>
  <circle cx="19.5" cy="17" r="1.5" fill="#212121"/>
  <circle cx="43.5" cy="17" r="1.5" fill="#212121"/>
  <!-- Boca -->
  <path d="M22 29 Q32 35 42 29" stroke="#1B5E20" stroke-width="2" fill="none" stroke-linecap="round"/>
  <!-- Pata delantera izquierda -->
  <path d="M16 38 L6 32 M6 32 L4 28 M6 32 L2 34 M6 32 L4 36" stroke="#2E7D32" stroke-width="2.5" stroke-linecap="round" fill="none"/>
  <!-- Pata delantera derecha -->
  <path d="M48 38 L58 32 M58 32 L60 28 M58 32 L62 34 M58 32 L60 36" stroke="#2E7D32" stroke-width="2.5" stroke-linecap="round" fill="none"/>
  <!-- Pata trasera izquierda -->
  <path d="M20 48 L10 56 M10 56 L6 58 M10 56 L8 60 M10 56 L14 60 M10 56 L12 62" stroke="#2E7D32" stroke-width="2.5" stroke-linecap="round" fill="none"/>
  <!-- Pata trasera derecha -->
  <path d="M44 48 L54 56 M54 56 L58 58 M54 56 L56 60 M54 56 L50 60 M54 56 L52 62" stroke="#2E7D32" stroke-width="2.5" stroke-linecap="round" fill="none"/>
  <!-- Patrón de piel -->
  <circle cx="26" cy="36" r="2.5" fill="#1B5E20" opacity="0.5"/>
  <circle cx="38" cy="40" r="2" fill="#1B5E20" opacity="0.5"/>
  <circle cx="32" cy="44" r="2" fill="#1B5E20" opacity="0.5"/>
</svg>
