<svg xmlns="http://www.w3.org/2000/svg" viewBox="0 0 64 64" fill="none">
  <!-- Huella de pata grande (mamífero) -->
  <!-- Almohadilla central -->
  <ellipse cx="32" cy="42" rx="13" ry="10" fill="#5D4037"/>
  <!-- Almohadilla central highlight -->
  <ellipse cx="30" cy="40" rx="5" ry="4" fill="#795548" opacity="0.5"/>

  <!-- Dedos (4 almohadillas superiores) -->
  <ellipse cx="16" cy="28" rx="6" ry="5" fill="#5D4037" transform="rotate(-20 16 28)"/>
  <ellipse cx="26" cy="22" rx="6" ry="5" fill="#5D4037" transform="rotate(-8 26 22)"/>
  <ellipse cx="37" cy="22" rx="6" ry="5" fill="#5D4037" transform="rotate(8 37 22)"/>
  <ellipse cx="47" cy="28" rx="6" ry="5" fill="#5D4037" transform="rotate(20 47 28)"/>

  <!-- Highlights en dedos -->
  <ellipse cx="15" cy="27" rx="2.5" ry="2" fill="#795548" opacity="0.5" transform="rotate(-20 15 27)"/>
  <ellipse cx="25" cy="21" rx="2.5" ry="2" fill="#795548" opacity="0.5" transform="rotate(-8 25 21)"/>
  <ellipse cx="36" cy="21" rx="2.5" ry="2" fill="#795548" opacity="0.5" transform="rotate(8 36 21)"/>
  <ellipse cx="46" cy="27" rx="2.5" ry="2" fill="#795548" opacity="0.5" transform="rotate(20 46 27)"/>

  <!-- Garras sutiles -->
  <path d="M12 24 L10 20" stroke="#4E342E" stroke-width="1.5" stroke-linecap="round"/>
  <path d="M22 18 L21 14" stroke="#4E342E" stroke-width="1.5" stroke-linecap="round"/>
  <path d="M37 18 L38 14" stroke="#4E342E" stroke-width="1.5" stroke-linecap="round"/>
  <path d="M50 24 L52 20" stroke="#4E342E" stroke-width="1.5" stroke-linecap="round"/>
</svg>
