<svg xmlns="http://www.w3.org/2000/svg" viewBox="0 0 64 64" fill="none">
  <!-- Ala superior izquierda -->
  <path d="M30 30 Q16 10 4 14 Q2 24 12 30 Q20 34 30 32 Z" fill="#4A148C"/>
  <path d="M30 30 Q16 10 4 14 Q2 24 12 30 Q20 34 30 32 Z" fill="url(#wingGradL)"/>
  <!-- Ala superior derecha -->
  <path d="M34 30 Q48 10 60 14 Q62 24 52 30 Q44 34 34 32 Z" fill="#6A1B9A"/>
  <!-- Ala inferior izquierda -->
  <path d="M30 32 Q12 38 8 52 Q16 58 26 50 Q30 44 30 36 Z" fill="#7B1FA2"/>
  <!-- Ala inferior derecha -->
  <path d="M34 32 Q52 38 56 52 Q48 58 38 50 Q34 44 34 36 Z" fill="#6A1B9A"/>
  <!-- Detalles iridiscentes en alas -->
  <circle cx="14" cy="22" r="4" fill="#CE93D8" opacity="0.7"/>
  <circle cx="50" cy="22" r="4" fill="#CE93D8" opacity="0.7"/>
  <ellipse cx="18" cy="46" rx="4" ry="3" fill="#AB47BC" opacity="0.6"/>
  <ellipse cx="46" cy="46" rx="4" ry="3" fill="#AB47BC" opacity="0.6"/>
  <!-- Cuerpo -->
  <ellipse cx="32" cy="34" rx="2.5" ry="10" fill="#212121"/>
  <!-- Cabeza -->
  <circle cx="32" cy="23" r="3" fill="#212121"/>
  <!-- Antenas -->
  <path d="M30 21 Q22 12 20 8" stroke="#212121" stroke-width="1.5" fill="none" stroke-linecap="round"/>
  <path d="M34 21 Q42 12 44 8" stroke="#212121" stroke-width="1.5" fill="none" stroke-linecap="round"/>
  <circle cx="20" cy="8" r="2" fill="#212121"/>
  <circle cx="44" cy="8" r="2" fill="#212121"/>
  <defs>
    <linearGradient id="wingGradL" x1="0%" y1="0%" x2="100%" y2="100%">
      <stop offset="0%" stop-color="#7B1FA2" stop-opacity="0"/>
      <stop offset="100%" stop-color="#CE93D8" stop-opacity="0.3"/>
    </linearGradient>
  </defs>
</svg>
