<svg xmlns="http://www.w3.org/2000/svg" viewBox="0 0 64 64" fill="none">
  <!-- Pétalos superiores -->
  <ellipse cx="32" cy="14" rx="6" ry="10" fill="#E91E63" transform="rotate(0 32 32)"/>
  <!-- Pétalo superior izquierdo -->
  <ellipse cx="32" cy="14" rx="6" ry="10" fill="#EC407A" transform="rotate(-40 32 32)"/>
  <!-- Pétalo superior derecho -->
  <ellipse cx="32" cy="14" rx="6" ry="10" fill="#EC407A" transform="rotate(40 32 32)"/>
  <!-- Pétalos laterales (sépalos) -->
  <ellipse cx="32" cy="14" rx="5" ry="9" fill="#F48FB1" opacity="0.8" transform="rotate(-80 32 32)"/>
  <ellipse cx="32" cy="14" rx="5" ry="9" fill="#F48FB1" opacity="0.8" transform="rotate(80 32 32)"/>
  <!-- Labelo (pétalo modificado) -->
  <path d="M26 36 Q32 48 38 36 Q36 32 32 30 Q28 32 26 36 Z" fill="#AD1457"/>
  <!-- Detalles del labelo -->
  <path d="M28 38 Q32 44 36 38" stroke="#F8BBD0" stroke-width="1.5" fill="none" stroke-linecap="round"/>
  <circle cx="30" cy="37" r="1" fill="#F8BBD0" opacity="0.8"/>
  <circle cx="34" cy="37" r="1" fill="#F8BBD0" opacity="0.8"/>
  <!-- Columna (parte central) -->
  <ellipse cx="32" cy="31" rx="4" ry="5" fill="#880E4F"/>
  <!-- Antera -->
  <circle cx="32" cy="27" r="2.5" fill="#FF80AB"/>
  <!-- Venas en pétalos -->
  <path d="M32 22 Q34 18 35 14" stroke="#AD1457" stroke-width="1" fill="none" opacity="0.5"/>
  <path d="M32 22 Q30 18 29 14" stroke="#AD1457" stroke-width="1" fill="none" opacity="0.5"/>
  <!-- Tallo -->
  <path d="M32 44 Q30 52 28 58" stroke="#2E7D32" stroke-width="2.5" fill="none" stroke-linecap="round"/>
  <!-- Hoja -->
  <path d="M28 54 Q20 50 18 44 Q22 46 28 54 Z" fill="#388E3C"/>
  <path d="M28 56 Q36 60 40 56 Q36 54 28 56 Z" fill="#43A047"/>
  <!-- Puntos decorativos en pétalos -->
  <circle cx="24" cy="28" r="1.5" fill="#F48FB1" opacity="0.6"/>
  <circle cx="40" cy="28" r="1.5" fill="#F48FB1" opacity="0.6"/>
</svg>
